<?xml version="1.0" encoding="UTF-8" standalone="no"?>
<!-- Generator: Adobe Illustrator 22.0.1, SVG Export Plug-In . SVG Version: 6.00 Build 0)  -->

<svg
   xmlns:dc="http://purl.org/dc/elements/1.1/"
   xmlns:cc="http://creativecommons.org/ns#"
   xmlns:rdf="http://www.w3.org/1999/02/22-rdf-syntax-ns#"
   xmlns:svg="http://www.w3.org/2000/svg"
   xmlns="http://www.w3.org/2000/svg"
   xmlns:sodipodi="http://sodipodi.sourceforge.net/DTD/sodipodi-0.dtd"
   xmlns:inkscape="http://www.inkscape.org/namespaces/inkscape"
   version="1.1"
   id="Layer_1"
   x="0px"
   y="0px"
   viewBox="0 0 735 852"
   style="enable-background:new 0 0 735 852;"
   xml:space="preserve"
   sodipodi:docname="factory.svg"
   inkscape:version="0.92.4 (5da689c313, 2019-01-14)"
   inkscape:export-filename="C:\Users\jon.harmon\Dropbox (Personal)\R\factory\man\figures\factory.png"
   inkscape:export-xdpi="96"
   inkscape:export-ydpi="96"><metadata
   id="metadata3871"><rdf:RDF><cc:Work
       rdf:about=""><dc:format>image/svg+xml</dc:format><dc:type
         rdf:resource="http://purl.org/dc/dcmitype/StillImage" /><dc:title>factory</dc:title><dc:creator><cc:Agent><dc:title>Jon Harmon</dc:title></cc:Agent></dc:creator><dc:rights><cc:Agent><dc:title>CC0</dc:title></cc:Agent></dc:rights><cc:license
         rdf:resource="http://creativecommons.org/publicdomain/zero/1.0/" /></cc:Work><cc:License
       rdf:about="http://creativecommons.org/publicdomain/zero/1.0/"><cc:permits
         rdf:resource="http://creativecommons.org/ns#Reproduction" /><cc:permits
         rdf:resource="http://creativecommons.org/ns#Distribution" /><cc:permits
         rdf:resource="http://creativecommons.org/ns#DerivativeWorks" /></cc:License></rdf:RDF></metadata><defs
   id="defs3869" /><sodipodi:namedview
   pagecolor="#ffffff"
   bordercolor="#666666"
   borderopacity="1"
   objecttolerance="10"
   gridtolerance="10"
   guidetolerance="10"
   inkscape:pageopacity="0"
   inkscape:pageshadow="2"
   inkscape:window-width="1920"
   inkscape:window-height="1013"
   id="namedview3867"
   showgrid="false"
   inkscape:zoom="1"
   inkscape:cx="184.63171"
   inkscape:cy="501.10438"
   inkscape:window-x="-9"
   inkscape:window-y="1504"
   inkscape:window-maximized="1"
   inkscape:current-layer="Layer_1" />
<style
   type="text/css"
   id="style3793">
	.st0{fill:#DB1F26;}
	.st1{opacity:0.25;fill:url(#SVGID_1_);enable-background:new    ;}
	.st2{fill:#A51D21;}
	.st3{fill:#E6B35A;}
	.st4{opacity:0.94;}
	.st5{fill:#FFFFFF;}
</style>
<polygon
   class="st0"
   points="19.8,224.7 19.8,626.2 367.5,826.9 715.1,626.2 715.1,224.7 367.5,24 "
   id="polygon3795"
   style="fill:#008000;fill-opacity:1"
   transform="matrix(1.055859,0,0,1.055859,-20.525391,-23.765213)" />
<title
   id="title3797">factory</title>
<linearGradient
   id="SVGID_1_"
   gradientUnits="userSpaceOnUse"
   x1="366.9532"
   y1="973.1201"
   x2="368.2531"
   y2="509.6"
   gradientTransform="matrix(1 0 0 -1 0 852)">
	<stop
   offset="0"
   style="stop-color:#FFFFFF;stop-opacity:0.83"
   id="stop3799" />
	<stop
   offset="0.56"
   style="stop-color:#FFFFFF;stop-opacity:0.37"
   id="stop3801" />
	<stop
   offset="1"
   style="stop-color:#FFFFFF;stop-opacity:0"
   id="stop3803" />
</linearGradient>
<path
   class="st1"
   d="m 368,341.7 c 128.5,0 239,-57.2 288.1,-139.3 L 367.5,35.8 v 0 L 79.6,202 c 49,82.3 159.7,139.7 288.4,139.7 z"
   id="path3806"
   style="opacity:0.05;fill:#ffffff;enable-background:new"
   inkscape:connector-curvature="0" />
<path
   class="st2"
   d="M 734.9,637.4 V 213.1 L 705.6,196.2 427.8,35.8 367.5,1 307.2,35.8 29.4,196.2 0.1,213.1 v 424.2 l 29.3,16.9 281.3,162.4 56.9,32.8 56.9,-32.8 281.3,-162.4 z M 29.4,621.5 V 231 L 79.6,202 367.5,35.8 v 0 L 656.1,202.4 705.6,231 V 621.5 L 367.5,816.7 Z"
   id="path3808"
   style="opacity:0.25;fill:#000000;fill-opacity:1"
   inkscape:connector-curvature="0" />
<path
   class="st3"
   d="M367,633.9c0.3-0.3,0.6-0.6,0.9-0.9h-0.3C367.5,633.3,367.3,633.6,367,633.9z"
   id="path3810" />


















<g
   transform="matrix(-2.630155,0,0,2.2485967,1028.8249,-90.405892)"
   id="g1935"
   style="fill:#cccccc">
		<polygon
   points="360.25,154.12 343.48,154.12 341.6,266.94 274.57,227.92 274.57,266.94 207.9,227.92 207.9,266.94 141.23,227.92 141.23,318.56 362.99,318.56 "
   id="polygon1945"
   style="fill:#cccccc" />
		<path
   d="m 205.38,128.34 c 7.78,9.5 19.37,15.26 31.68,15.26 7.2,0 14.26,-2.08 20.45,-5.76 l 9.14,9.36 C 243.54,163.26 212,158.29 194.87,135.83 Z"
   id="path1947"
   inkscape:connector-curvature="0"
   style="fill:#cccccc" />
		<path
   d="m 339.37,142.67 12.75,-4.61 c -9.65,-14.69 -26.07,-23.69 -43.85,-23.69 -13.18,0 -25.78,4.97 -35.43,13.83 l 9.15,8.78 c 17.06,-15.05 43.56,-12.46 57.38,5.69 z"
   id="path1949"
   inkscape:connector-curvature="0"
   style="fill:#cccccc" />
	</g><text
   xml:space="preserve"
   style="font-style:normal;font-weight:normal;font-size:54.15569687px;line-height:1.25;font-family:sans-serif;letter-spacing:0px;word-spacing:0px;fill:#cccccc;fill-opacity:1;stroke:none;stroke-width:1.35389233"
   x="175.0731"
   y="389.73581"
   id="text4728"><tspan
     sodipodi:role="line"
     id="tspan4726"
     x="175.0731"
     y="389.73581"
     style="font-style:normal;font-variant:normal;font-weight:bold;font-stretch:normal;font-size:162.46710205px;font-family:Roboto;-inkscape-font-specification:'Roboto Bold';font-variant-ligatures:normal;font-variant-caps:normal;font-variant-numeric:normal;font-feature-settings:normal;text-align:start;writing-mode:lr-tb;text-anchor:start;fill:#cccccc;stroke-width:1.35389233">actory</tspan></text>
<rect
   style="fill:#cccccc"
   id="rect4732"
   width="104.94146"
   height="34.287804"
   x="51.951218"
   y="323.60489" /></svg>